Genre:Action | Adventure | Romance
Language:English
IMDb:http://www.imdb.com/title/tt1509767/
Source:720p BluRay x264-EHLE Thanks!

Format : AVI
Format/Info : Audio Video Interleave
File size : 1.54 GiB
Duration : 1h 50mn
Overall bit rate : 2 000 Kbps

Video
ID : 0
Format : MPEG-4 Visual
Format profile : Advanced Simple@L5
Format settings, BVOP : 1
Format settings, QPel : No
Format settings, GMC : No warppoints
Format settings, Matrix : Default (H.263)
Codec ID : XVID
Codec ID/Hint : XviD
Duration : 1h 50mn
Bit rate : 1 543 Kbps
Width : 640 pixels
Height : 272 pixels
Display aspect ratio : 2.35:1
Frame rate : 23.976 fps
Color space : YUV
Chroma subsampling : 4:2:0
Bit depth : 8 bits
Scan type : Progressive
Compression mode : Lossy
Bits/(Pixel*Frame) : 0.370
Stream size : 1.19 GiB (77%)
Writing library : XviD 1.2.1 (UTC 2008-12-04)

Audio
ID : 1
Format : AC-3
Format/Info : Audio Coding 3
Mode extension : CM (complete main)
Codec ID : 2000
Duration : 1h 50mn
Bit rate mode : Constant
Bit rate : 448 Kbps
Channel(s) : 6 channels
Channel positions : Front: L C R, Side: L R, LFE
Sampling rate : 48.0 KHz
Bit depth : 16 bits
Compression mode : Lossy
Stream size : 354 MiB (22%)
Alignment : Aligned on interleaves
Interleave, duration : 42 ms (1.00 video frame)
Interleave, preload duration : 512 ms



Plot:
The hot-headed young D'Artagnan along with three former legendary but now down on their luck Musketeers must unite and defeat a beautiful double agent and her villainous employer from seizing the French throne and engulfing Europe in war

Screens

[img]http://img822.imageshack.us/img822/5070/vlcsnap2012020308h52m10.png[/img]

[img]http://img696.imageshack.us/img696/782/vlcsnap2012020308h49m20.png[/img]

[img]http://img822.imageshack.us/img822/8098/vlcsnap2012020308h57m02.png[/img]